<?xml version="1.0" encoding="utf-8"?>
<!-- Generator: Adobe Illustrator 27.5.0, SVG Export Plug-In . SVG Version: 6.00 Build 0)  -->
<svg version="1.1" id="Layer_1" xmlns="http://www.w3.org/2000/svg" xmlns:xlink="http://www.w3.org/1999/xlink" x="0px" y="0px"
	 viewBox="0 0 1024 1024" style="enable-background:new 0 0 1024 1024;" xml:space="preserve">
<g>
	<path style="fill:#0A93DB;" d="M475.623,23.291c55.464,80.634,114.88,161.611,145.839,255.254
		c-4.396,6.414-3.792,14.098-2.602,21.379c-5.929,0.686-11.979,0.968-17.748-0.807c-14.138,11.697-30.152,21.338-42.555,35.576
		c-5.102,2.401-9.479,5.95-13.212,10.126c-7.723,1.108-12.141,8.349-19.199,10.931c12.887-92.493-8.168-185.712-39.953-272.275
		C482.137,63.548,478.972,43.359,475.623,23.291z"/>
	<path style="fill:#5BD4E9;" d="M486.192,83.475c31.785,86.563,52.84,179.782,39.953,272.275
		c-15.327,99.231-58.974,193.738-56.33,295.69c-14.402-33.095-28.317-66.596-46.388-97.958
		c-22.952-41.991-50.887-83.74-55.302-132.689c-4.458-49.212,15.872-96.324,39.186-138.438
		C442.325,220.298,483.51,157.01,486.192,83.475z"/>
	<path style="fill:#2E569B;" d="M960.072,194.704c3.65-12.081,5.305-24.847,10.184-36.485c8.189,87.935,12.787,176.92,2.744,264.894
		c-10.246,90.92-57.764,178.452-133.354,231.214c-57.845,41.707-130.33,55.079-189.303,94.792
		c-59.679,37.35-106.188,94.61-130.653,160.54c0.162-27.731,3.087-55.604,8.533-82.81c18.837-67.303,58.104-127.99,108.041-176.455
		c43.182-43.424,94.269-77.729,140.737-117.382C878.51,449.131,943.069,324.629,960.072,194.704z"/>
	<path style="fill:#0A93DB;" d="M48.917,162.132c5.184,8.41,5.203,19.181,7.362,28.72c7.784,139.466,59.92,278.246,151.565,384.352
		c4.56-8.006,14.078-6.393,21.318-3.771c1.875-2.036,3.651-4.174,5.526-6.19c2.279,0.362,4.538,0.725,6.817,1.129
		c5.022-6.878,9.58-14.138,12.141-22.286c8.995-4.538,14.34-13.09,19.625-21.258c6.212-10.065,19.684-11.638,25.916-21.681
		c1.754-0.362,3.51-0.728,5.284-1.09c0.283-1.25,0.585-2.482,0.907-3.71c7.282,4.658,13.998-0.143,19.442-5.165
		c52.781,66.718,100.783,139.124,131.015,218.829c-2.379,12.061,6.273,24.041,2.301,36.949c-2.239-0.746-4.457-1.493-6.655-2.218
		c-1.069,1.31-2.098,2.661-3.147,4.013c-0.887-0.948-2.663-2.864-3.549-3.811c-5.224,8.853-9.781,18.151-15.974,26.441
		c-28.821-14.24-47.819-43.323-75.39-60.365c1.755,5.507,4.678,10.487,8.126,15.106c-3.126,2.863-6.251,5.728-9.357,8.633
		c-2.602-1.069-5.203-2.098-7.786-3.126c-1.37,0.463-4.092,1.41-5.443,1.875l-0.908,0.304
		c-34.993-18.678-72.445-32.069-108.186-49.151C145.929,645.27,83.687,566.572,59.606,477.567
		C32.62,374.627,42.563,267.028,48.917,162.132z"/>
	<path style="fill:#1EB6ED;" d="M56.279,190.852c14.42,31.766,38.139,57.944,61.917,82.974
		c69.883,71.418,145.012,138.275,206.626,217.356c-5.444,5.022-12.16,9.823-19.442,5.165c-0.322,1.228-0.624,2.46-0.907,3.71
		c-1.775,0.362-3.53,0.728-5.284,1.09c-6.232,10.043-19.704,11.616-25.916,21.681c-5.285,8.168-10.63,16.72-19.625,21.258
		c-2.561,8.148-7.118,15.408-12.141,22.286c-2.279-0.404-4.538-0.767-6.817-1.129c-1.875,2.017-3.651,4.154-5.526,6.19
		c-7.24-2.621-16.759-4.234-21.318,3.771C116.199,469.098,64.063,330.317,56.279,190.852z"/>
	<path style="fill:#6FA4DE;" d="M903.659,266.362c21.603-21.539,41.448-44.996,56.413-71.658
		c-17.003,129.925-81.563,254.427-183.07,338.307c-46.469,39.652-97.556,73.958-140.737,117.382
		c-49.937,48.465-89.204,109.152-108.041,176.455c5.223-48.586,20.188-95.923,38.44-141.141
		c46.43-105.501,117.482-198.398,196.685-281.391C808.566,356.759,857.273,312.731,903.659,266.362z"/>
	<path style="fill:#098AB9;" d="M618.859,299.924c-1.19-7.281-1.794-14.965,2.602-21.379c17.385,45.48,27.751,94.773,24.363,143.64
		c-3.488,44.714-28.498,83.176-50.118,121.092c-40.236,67.988-68.573,143.661-77.749,222.38c-2.704,15.55-2.805,31.605-7.162,46.831
		c-8.006-54.979-24.402-108.244-40.98-161.047c-2.643-101.952,41.003-196.46,56.33-295.69c7.059-2.582,11.477-9.822,19.199-10.931
		c3.732-4.176,8.109-7.725,13.212-10.126c12.402-14.238,28.417-23.879,42.555-35.576
		C606.881,300.892,612.931,300.609,618.859,299.924z"/>
	<path style="fill:#1B2A5E;" d="M1012.813,460.889c22.146,101.247,14.26,215.461-49.553,300.874
		c-55.929,77.871-147.897,124.722-241.923,136.44c-41.507,5.204-84.809,3.227-124.137,19.623
		c-32.473,12.142-58.974,36.426-77.609,65.267c11.436-100.358,93.764-175.709,181.801-215.018
		c38.54-17.89,80.128-28.317,118.187-47.335C920.059,671.751,1002.95,575.164,1012.813,460.889z"/>
	<path style="fill:#4073BA;" d="M3.235,603.621c-6.434-46.55-2.562-94.348,5.385-140.534
		c8.611,99.229,72.385,186.337,154.391,239.22c4.477,10.266,16.416,15.065,19.523,26.3c-2.561,1.571-5.243,2.903-7.764,4.497
		c0.947,7.866,1.29,17.346-5.769,22.649c-9.942,7.402-8.106,21.077-13.653,31.12C84.03,747.343,30.503,680.06,3.235,603.621z"/>
	<path style="fill:#6FA4DE;" d="M3.235,603.621C30.503,680.06,84.03,747.343,155.347,786.873
		c9.882,5.445,19.543,11.535,30.393,14.965c-5.827,5.526-11.475,11.477-14.4,19.12c-1.532,0.243-3.045,0.505-4.558,0.786
		c-1.978,10.204-10.185,17.244-16.861,24.606C66.644,794.556,9.628,701.6,3.235,603.621z"/>
	<path style="fill:#2E569B;" d="M182.533,728.606c-3.106-11.234-15.046-16.034-19.523-26.3
		c37.916,22.852,79.523,38.22,120.97,53.285c57.965,22.166,113.348,54.333,155.883,100.055
		c31.949,34.832,52.56,79.465,59.255,126.176c-19.018-30.596-47.738-55.121-82.025-66.879c0-0.646,0-1.976,0-2.642
		c-12.845-17.346,11.881-34.448,21.36-48.062c-79.161-39.189-172.986-23.739-252.714-62.402c-10.85-3.43-20.511-9.519-30.393-14.965
		c5.547-10.043,3.711-23.718,13.653-31.12c7.06-5.304,6.717-14.783,5.769-22.649C177.29,731.51,179.973,730.178,182.533,728.606z"/>
	<path style="fill:#098AB9;" d="M353.423,711.019c27.57,17.042,46.568,46.125,75.39,60.365c6.192-8.29,10.75-17.588,15.974-26.441
		c0.886,0.947,2.662,2.863,3.549,3.811c1.05-1.352,2.078-2.703,3.147-4.013c2.198,0.725,4.416,1.472,6.655,2.218
		c3.973-12.908-4.68-24.888-2.301-36.949c26.1,63.268,42.173,131.6,44.17,200.133c-28.498-77.044-88.964-138.699-161.045-176.636
		c1.352-0.465,4.073-1.412,5.443-1.875c2.583,1.028,5.185,2.057,7.786,3.126c3.107-2.905,6.232-5.769,9.357-8.633
		C358.101,721.506,355.178,716.525,353.423,711.019z"/>
	<path style="fill:#4073BA;" d="M185.739,801.838c79.728,38.663,173.553,23.213,252.714,62.402
		c-9.48,13.613-34.205,30.716-21.36,48.062c0,0.666,0,1.995,0,2.642c-34.729-11.678-71.637-11.879-107.74-15.107
		c-56.43-4.819-111.471-23.414-159.432-53.485c6.677-7.362,14.884-14.402,16.861-24.606c1.513-0.281,3.025-0.543,4.558-0.786
		C174.265,813.315,179.912,807.364,185.739,801.838z"/>
	<path style="fill:#6FA4DE;" d="M586.712,971.838c17.344-7.44,27.832,20.553,11.274,27.651
		C581.104,1006.911,569.951,978.313,586.712,971.838z"/>
</g>
</svg>
